<svg xmlns="http://www.w3.org/2000/svg" xmlns:xlink="http://www.w3.org/1999/xlink" width="500" zoomAndPan="magnify" viewBox="0 0 375 374.999991" height="500" preserveAspectRatio="xMidYMid meet" version="1.0"><defs><g/><clipPath id="fa7394a431"><path d="M 8.273438 8.273438 L 366.773438 8.273438 L 366.773438 366.773438 L 8.273438 366.773438 Z M 8.273438 8.273438 " clip-rule="nonzero"/></clipPath><clipPath id="99531a0d32"><rect x="0" width="184" y="0" height="320"/></clipPath></defs><rect x="-37.5" width="450" fill="#ffffff" y="-37.499999" height="449.999989" fill-opacity="1"/><rect x="-37.5" width="450" fill="#ffffff" y="-37.499999" height="449.999989" fill-opacity="1"/><g clip-path="url(#fa7394a431)"><path fill="#cbaa26" d="M 187.511719 12.929688 C 91.257812 12.929688 12.949219 91.238281 12.949219 187.492188 C 12.949219 283.746094 91.257812 362.054688 187.511719 362.054688 C 283.765625 362.054688 362.074219 283.746094 362.074219 187.492188 C 362.074219 91.238281 283.765625 12.929688 187.511719 12.929688 Z M 187.511719 366.714844 C 88.6875 366.714844 8.292969 286.316406 8.292969 187.492188 C 8.292969 88.671875 88.6875 8.273438 187.511719 8.273438 C 286.335938 8.273438 366.734375 88.671875 366.734375 187.492188 C 366.734375 286.316406 286.335938 366.714844 187.511719 366.714844 " fill-opacity="1" fill-rule="nonzero"/></g><g fill="#cbaa26" fill-opacity="1"><g transform="translate(54.187501, 248.717386)"><g><path d="M 150.703125 -169.515625 L 154.484375 -113.171875 L 150.703125 -113.171875 C 145.648438 -130.046875 138.4375 -142.1875 129.0625 -149.59375 C 119.695312 -157.007812 108.453125 -160.71875 95.328125 -160.71875 C 84.328125 -160.71875 74.382812 -157.925781 65.5 -152.34375 C 56.625 -146.769531 49.640625 -137.867188 44.546875 -125.640625 C 39.453125 -113.421875 36.90625 -98.226562 36.90625 -80.0625 C 36.90625 -65.0625 39.304688 -52.0625 44.109375 -41.0625 C 48.921875 -30.0625 56.15625 -21.628906 65.8125 -15.765625 C 75.46875 -9.898438 86.488281 -6.96875 98.875 -6.96875 C 109.632812 -6.96875 119.128906 -9.269531 127.359375 -13.875 C 135.585938 -18.476562 144.628906 -27.625 154.484375 -41.3125 L 158.28125 -38.859375 C 149.96875 -24.117188 140.269531 -13.328125 129.1875 -6.484375 C 118.101562 0.359375 104.945312 3.78125 89.71875 3.78125 C 62.25 3.78125 40.976562 -6.398438 25.90625 -26.765625 C 14.664062 -41.921875 9.046875 -59.765625 9.046875 -80.296875 C 9.046875 -96.835938 12.753906 -112.035156 20.171875 -125.890625 C 27.585938 -139.742188 37.789062 -150.476562 50.78125 -158.09375 C 63.78125 -165.707031 77.976562 -169.515625 93.375 -169.515625 C 105.351562 -169.515625 117.171875 -166.582031 128.828125 -160.71875 C 132.242188 -158.925781 134.6875 -158.03125 136.15625 -158.03125 C 138.351562 -158.03125 140.269531 -158.804688 141.90625 -160.359375 C 144.019531 -162.554688 145.523438 -165.609375 146.421875 -169.515625 Z M 150.703125 -169.515625 "/></g></g></g><g transform="matrix(1, 0, 0, 1, 118, 55)"><g clip-path="url(#99531a0d32)"><g fill="#cbaa26" fill-opacity="1"><g transform="translate(1.256215, 268.252676)"><g><path d="M 153.953125 -169.875 L 158.234375 -117.453125 L 153.953125 -117.453125 C 149.617188 -130.515625 144.023438 -140.351562 137.171875 -146.96875 C 127.296875 -156.519531 114.597656 -161.296875 99.078125 -161.296875 C 77.929688 -161.296875 61.847656 -152.925781 50.828125 -136.1875 C 41.597656 -122.0625 36.984375 -105.242188 36.984375 -85.734375 C 36.984375 -69.890625 40.046875 -55.4375 46.171875 -42.375 C 52.296875 -29.3125 60.316406 -19.738281 70.234375 -13.65625 C 80.160156 -7.570312 90.347656 -4.53125 100.796875 -4.53125 C 106.921875 -4.53125 112.835938 -5.304688 118.546875 -6.859375 C 124.265625 -8.410156 129.78125 -10.695312 135.09375 -13.71875 L 135.09375 -61.734375 C 135.09375 -70.054688 134.457031 -75.503906 133.1875 -78.078125 C 131.925781 -80.648438 129.96875 -82.609375 127.3125 -83.953125 C 124.65625 -85.304688 119.984375 -85.984375 113.296875 -85.984375 L 113.296875 -90.625 L 177.59375 -90.625 L 177.59375 -85.984375 L 174.53125 -85.984375 C 168.15625 -85.984375 163.785156 -83.859375 161.421875 -79.609375 C 159.785156 -76.585938 158.96875 -70.628906 158.96875 -61.734375 L 158.96875 -10.90625 C 149.582031 -5.84375 140.316406 -2.128906 131.171875 0.234375 C 122.023438 2.609375 111.859375 3.796875 100.671875 3.796875 C 68.585938 3.796875 44.21875 -6.488281 27.5625 -27.0625 C 15.0625 -42.5 8.8125 -60.300781 8.8125 -80.46875 C 8.8125 -95.082031 12.320312 -109.082031 19.34375 -122.46875 C 27.675781 -138.394531 39.109375 -150.644531 53.640625 -159.21875 C 65.804688 -166.320312 80.175781 -169.875 96.75 -169.875 C 102.789062 -169.875 108.28125 -169.382812 113.21875 -168.40625 C 118.164062 -167.425781 125.171875 -165.257812 134.234375 -161.90625 C 138.804688 -160.195312 141.867188 -159.34375 143.421875 -159.34375 C 144.972656 -159.34375 146.296875 -160.054688 147.390625 -161.484375 C 148.492188 -162.910156 149.171875 -165.707031 149.421875 -169.875 Z M 153.953125 -169.875 "/></g></g></g></g></g><g fill="#cbaa26" fill-opacity="1"><g transform="translate(170.946132, 224.218461)"><g><path d="M 32.65625 -27.28125 L 45.78125 -27.28125 L 45.78125 -26.125 C 43.96875 -25.976562 42.628906 -25.578125 41.765625 -24.921875 C 40.898438 -24.265625 39.550781 -22.28125 37.71875 -18.96875 C 35.882812 -15.65625 33.820312 -12.5625 31.53125 -9.6875 C 33.382812 -7.519531 35.039062 -6.003906 36.5 -5.140625 C 37.957031 -4.273438 39.425781 -3.84375 40.90625 -3.84375 C 42.34375 -3.84375 43.5625 -4.234375 44.5625 -5.015625 C 45.5625 -5.796875 46.269531 -6.945312 46.6875 -8.46875 L 47.84375 -7.625 C 47.070312 -4.6875 45.832031 -2.519531 44.125 -1.125 C 42.414062 0.269531 40.425781 0.96875 38.15625 0.96875 C 36.445312 0.96875 34.710938 0.503906 32.953125 -0.421875 C 31.191406 -1.347656 29.269531 -2.914062 27.1875 -5.125 C 24.601562 -2.832031 22.273438 -1.242188 20.203125 -0.359375 C 18.128906 0.523438 15.914062 0.96875 13.5625 0.96875 C 10.125 0.96875 7.394531 0.0507812 5.375 -1.78125 C 3.351562 -3.613281 2.34375 -5.800781 2.34375 -8.34375 C 2.34375 -10.863281 3.25 -13.378906 5.0625 -15.890625 C 6.875 -18.398438 10.28125 -21 15.28125 -23.6875 C 14.300781 -25.851562 13.632812 -27.628906 13.28125 -29.015625 C 12.925781 -30.398438 12.75 -31.726562 12.75 -33 C 12.75 -36.5625 14.0625 -39.28125 16.6875 -41.15625 C 18.726562 -42.613281 21.050781 -43.34375 23.65625 -43.34375 C 26.132812 -43.34375 28.15625 -42.609375 29.71875 -41.140625 C 31.28125 -39.671875 32.0625 -37.863281 32.0625 -35.71875 C 32.0625 -33.507812 31.304688 -31.570312 29.796875 -29.90625 C 28.285156 -28.238281 25.613281 -26.414062 21.78125 -24.4375 C 24.425781 -19.726562 27.1875 -15.414062 30.0625 -11.5 C 33.726562 -15.875 35.5625 -19.5625 35.5625 -22.5625 C 35.5625 -23.519531 35.25 -24.375 34.625 -25.125 C 34.164062 -25.6875 33.507812 -26.019531 32.65625 -26.125 Z M 20.71875 -26.46875 C 23.300781 -27.695312 25.234375 -29.09375 26.515625 -30.65625 C 27.796875 -32.21875 28.4375 -33.957031 28.4375 -35.875 C 28.4375 -37.375 27.972656 -38.613281 27.046875 -39.59375 C 26.117188 -40.570312 24.96875 -41.0625 23.59375 -41.0625 C 21.78125 -41.0625 20.410156 -40.429688 19.484375 -39.171875 C 18.554688 -37.910156 18.09375 -36.675781 18.09375 -35.46875 C 18.09375 -34.445312 18.269531 -33.304688 18.625 -32.046875 C 18.976562 -30.785156 19.675781 -28.925781 20.71875 -26.46875 Z M 25.5625 -6.9375 C 22.8125 -10.6875 20.90625 -13.425781 19.84375 -15.15625 C 18.78125 -16.882812 17.613281 -19.03125 16.34375 -21.59375 C 13.84375 -20.15625 11.960938 -18.570312 10.703125 -16.84375 C 9.441406 -15.113281 8.8125 -13.238281 8.8125 -11.21875 C 8.8125 -8.988281 9.53125 -7.03125 10.96875 -5.34375 C 12.40625 -3.65625 14.34375 -2.8125 16.78125 -2.8125 C 18.09375 -2.8125 19.359375 -3.070312 20.578125 -3.59375 C 21.796875 -4.113281 23.457031 -5.226562 25.5625 -6.9375 Z M 25.5625 -6.9375 "/></g></g></g></svg>